<?xml version="1.0" standalone="no"?>
<!DOCTYPE svg PUBLIC "-//W3C//DTD SVG 20010904//EN"
 "http://www.w3.org/TR/2001/REC-SVG-20010904/DTD/svg10.dtd">
<svg version="1.0" xmlns="http://www.w3.org/2000/svg"
 width="450.000000pt" height="450.000000pt" viewBox="0 0 450.000000 450.000000"
 preserveAspectRatio="xMidYMid meet">
<metadata>
Created by potrace 1.10, written by Peter Selinger 2001-2011
</metadata>
<g transform="translate(0.000000,450.000000) scale(0.050000,-0.050000)"
fill="#000000" stroke="none">
<path d="M3880 8030 l-609 -610 -841 -5 -840 -5 -5 -840 -5 -840 -615 -615
-615 -615 615 -615 615 -615 5 -860 5 -860 860 -5 860 -5 595 -595 595 -595
595 595 595 595 880 5 880 5 5 880 5 880 595 595 595 595 -596 596 -596 596
-3 799 -4 799 -6 -775 c-3 -426 -12 -775 -20 -775 -8 0 -384 369 -835 820
l-820 820 834 0 c776 0 834 -2 843 -35 6 -20 9 -14 7 15 l-4 50 -860 5 -861 5
-609 610 c-335 336 -614 610 -620 610 -6 0 -285 -274 -620 -610z m2680 -1480
l2050 -2050 -2055 -2055 -2055 -2055 -2055 2055 -2055 2055 2050 2050 c1127
1127 2054 2050 2060 2050 6 0 933 -923 2060 -2050z m-4129 31 c-439 -439 -806
-794 -815 -789 -9 6 -16 365 -16 799 l0 789 815 0 815 0 -799 -799z m5004
-4166 l-5 -845 -845 -5 c-465 -3 -845 1 -845 10 0 20 1665 1685 1685 1685 9 0
13 -380 10 -845z m-4990 -10 c448 -448 815 -822 815 -830 0 -9 -371 -13 -825
-10 l-825 5 -5 825 c-3 454 1 825 10 825 8 0 382 -367 830 -815z"/>
<path d="M2720 6309 c-138 -81 -249 -160 -248 -175 1 -15 169 -315 373 -666
988 -1703 957 -1638 856 -1836 l-39 -76 134 -237 c157 -278 137 -270 282 -124
253 253 335 658 199 981 -57 135 -75 167 -623 1114 -546 945 -677 1170 -681
1168 -2 0 -115 -68 -253 -149z"/>
<path d="M5560 6266 c-73 -12 -307 -88 -327 -106 -9 -9 36 -112 100 -229 l117
-213 97 13 c426 58 764 -579 455 -859 -55 -50 -59 -36 69 -268 136 -248 124
-241 244 -146 815 644 257 1977 -755 1808z"/>
<path d="M4380 5690 c-214 -126 -399 -232 -409 -236 -16 -6 370 -689 1259
-2224 134 -231 271 -469 306 -530 35 -60 71 -122 81 -137 16 -25 233 84 496
249 48 29 44 36 -450 884 -172 296 -172 260 -5 356 l138 79 -110 200 c-61 109
-116 206 -124 214 -7 8 -75 -22 -151 -66 -76 -44 -145 -73 -153 -65 -24 24
-518 885 -518 901 1 8 64 50 140 93 77 44 140 89 140 100 -1 33 -210 399 -232
405 -10 3 -193 -98 -408 -223z"/>
<path d="M2606 3513 c-134 -79 -249 -148 -254 -154 -22 -24 197 -286 308 -368
228 -167 484 -217 785 -153 155 33 155 30 1 297 -135 232 -138 235 -219 246
-103 14 -207 83 -291 194 -77 103 -38 110 -330 -62z"/>
</g>
</svg>
